<svg xmlns="http://www.w3.org/2000/svg" width="200" height="200" style="shape-rendering:geometricPrecision;text-rendering:geometricPrecision;image-rendering:optimizeQuality;fill-rule:evenodd;clip-rule:evenodd"><path fill="#fefffe" d="M98.5 4.5a1123.663 1123.663 0 0 1 28.5 28c.667 8.333.667 16.667 0 25l-18-18c-.5 16.663-.667 33.33-.5 50 17.003.167 34.003 0 51-.5l-18-18a156.492 156.492 0 0 1 25 0 533.725 533.725 0 0 0 28 27l-28 28c-8.333.667-16.667.667-25 0l18-18c-16.997-.5-33.997-.667-51-.5-.167 17.337 0 34.67.5 52l18-18c.667 8.333.667 16.667 0 25l-28 28-27-28a156.492 156.492 0 0 1 0-25l18 18c.5-17.33.667-34.663.5-52-17.003-.167-34.003 0-51 .5l18 18c-8.333.667-16.667.667-25 0l-28-28a533.608 533.608 0 0 0 28-27 156.492 156.492 0 0 1 25 0l-18 18c16.997.5 33.997.667 51 .5.167-16.67 0-33.337-.5-50l-18 18a169.242 169.242 0 0 1 0-26 1008.164 1008.164 0 0 0 26.5-27Z" style="opacity:.927"/></svg>